<?xml version="1.0" encoding="UTF-8"?>
<svg width="247px" height="222px" viewBox="0 0 247 222" version="1.1" xmlns="http://www.w3.org/2000/svg" xmlns:xlink="http://www.w3.org/1999/xlink">
    <!-- Generator: Sketch 51 (57462) - http://www.bohemiancoding.com/sketch -->
    <title>Screen Shot 2018-09-08 at 3.13.47 AM</title>
    <desc>Created with Sketch.</desc>
    <defs></defs>
    <g id="Page-1" stroke="none" stroke-width="1" fill="none" fill-rule="evenodd">
        <g id="desktop-landing-page-copy" transform="translate(-59.000000, -687.000000)" fill="#F8DDC6" fill-rule="nonzero">
            <g id="2.-Benefits-Section" transform="translate(32.000000, 506.000000)">
                <g id="Benefits-One" transform="translate(0.000000, 181.000000)">
                    <g id="Screen-Shot-2018-09-08-at-3.13.47-AM" transform="translate(27.000000, 0.000000)">
                        <g id="noun_seeds_169530">
                            <g id="Group">
                                <path d="M177.269373,164.663312 C177.269373,164.663312 116.153587,164.84147 115.297355,164.84147 C109.570954,164.84147 104.011254,162.307499 99.8285973,158.40916 L63.6263908,124.746855 C61.7719787,123.013588 61.669938,120.115752 63.4056395,118.268244 C65.1332585,116.412682 68.054046,116.3231 69.9084582,118.040262 L106.110665,151.710619 C111.225326,156.490186 119.782597,156.273276 124.710858,151.316054 C130.430186,144.575239 129.889674,134.476095 123.339371,128.385003 L84.7483016,92.4846502 C81.6512161,89.6034222 77.5706002,88 73.3308614,88 L4.92219882,95.7760443 C2.11961681,96.0936085 0,98.4579768 0,101.269753 L0,149.004026 C0,152.051837 2.47120244,154.521892 5.53040154,154.534474 L31.6644282,154.636135 C38.1424945,154.660292 44.4407267,156.756417 49.6281302,160.61852 L91.8189109,192.014092 C97.0391493,195.900352 103.38234,198 109.897282,198 L177.269373,198 C186.508599,198 194,190.536487 194,181.331656 C194,172.126824 186.508599,164.663312 177.269373,164.663312 Z" id="Shape"></path>
                                <path d="M153.001993,156 C159.076679,156 164,151.077177 164,144.998007 C164,138.923321 159.076679,134 153.001993,134 C146.922823,134 142,138.922823 142,144.998007 C142,151.077177 146.922823,156 153.001993,156 Z" id="Shape"></path>
                                <path d="M180,110.998007 C180,104.923321 175.076679,100 169.001993,100 C162.922823,100 158,104.923321 158,110.998007 C158,117.077177 162.922823,122 169.001993,122 C175.076679,122 180,117.076679 180,110.998007 Z" id="Shape"></path>
                                <path d="M125,110.998007 C125,117.077177 129.922823,122 136.001993,122 C142.076679,122 147,117.077177 147,110.998007 C147,104.923321 142.077177,100 136.001993,100 C129.922823,100 125,104.923321 125,110.998007 Z" id="Shape"></path>
                                <path d="M119.001993,89 C125.076679,89 130,84.0771774 130,77.9980072 C130,71.9233208 125.077177,67 119.001993,67 C112.923321,67 108,71.9228226 108,77.9980072 C108.000498,84.0771774 112.923321,89 119.001993,89 Z" id="Shape"></path>
                                <path d="M153.001993,89 C159.076679,89 164,84.0771774 164,77.9980072 C164,71.9233208 159.076679,67 153.001993,67 C146.922823,67 142,71.9228226 142,77.9980072 C142,84.0771774 146.922823,89 153.001993,89 Z" id="Shape"></path>
                                <path d="M175,77.9980072 C175,84.0771774 179.922823,89 186.001993,89 C192.076679,89 197,84.0771774 197,77.9980072 C197,71.9233208 192.077177,67 186.001993,67 C179.922823,67.0004982 175,71.9233208 175,77.9980072 Z" id="Shape"></path>
                                <path d="M158,43.9980072 C158,50.0771774 162.922823,55 169.001993,55 C175.076679,55 180,50.0771774 180,43.9980072 C180,37.9233208 175.076679,33 169.001993,33 C162.922823,33 158,37.9233208 158,43.9980072 Z" id="Shape"></path>
                                <path d="M136.001993,55 C142.076679,55 147,50.0771774 147,43.9980072 C147,37.9233208 142.077177,33 136.001993,33 C129.923321,33 125,37.9228226 125,43.9980072 C125.000498,50.0771774 129.923321,55 136.001993,55 Z" id="Shape"></path>
                                <path d="M153.001993,22 C159.076679,22 164,17.0771774 164,10.9980072 C164,4.9233208 159.076679,0 153.001993,0 C146.922823,0 142,4.92282259 142,10.9980072 C142,17.0771774 146.922823,22 153.001993,22 Z" id="Shape"></path>
                                <path d="M214,110.998007 C214,104.923321 209.077066,100 203.002242,100 C196.922934,100 192,104.923321 192,110.998007 C192,117.077177 196.922934,122 203.002242,122 C209.076568,122 214,117.076679 214,110.998007 Z" id="Shape"></path>
                                <path d="M186.001993,134 C179.922823,134 175,138.922823 175,144.998007 C175,151.077177 179.922823,156 186.001993,156 C192.076679,156 197,151.077177 197,144.998007 C196.999502,138.922823 192.076679,134 186.001993,134 Z" id="Shape"></path>
                                <path d="M230,144.998007 C230,138.923321 225.077177,134 219.001993,134 C212.923321,134 208,138.922823 208,144.998007 C208,151.077177 212.922823,156 219.001993,156 C225.076679,156 230,151.077177 230,144.998007 Z" id="Shape"></path>
                                <path d="M239,177.998007 C239,171.923321 234.077177,167 228.001993,167 C221.923321,167 217,171.922823 217,177.998007 C217,184.077177 221.923321,189 228.001993,189 C234.076679,189 239,184.077177 239,177.998007 Z" id="Shape"></path>
                                <path d="M236.001993,200 C229.923321,200 225,204.923321 225,210.998007 C225,217.077177 229.922823,222 236.001993,222 C242.076679,222 247,217.077177 247,210.998007 C247,204.922823 242.076679,200 236.001993,200 Z" id="Shape"></path>
                            </g>
                        </g>
                    </g>
                </g>
            </g>
        </g>
    </g>
</svg>