<?xml version="1.0" encoding="UTF-8"?>
<svg width="205px" height="222px" viewBox="0 0 205 222" version="1.1" xmlns="http://www.w3.org/2000/svg" xmlns:xlink="http://www.w3.org/1999/xlink">
    <!-- Generator: Sketch 51 (57462) - http://www.bohemiancoding.com/sketch -->
    <title>Screen Shot 2018-09-08 at 3.13.47 AM</title>
    <desc>Created with Sketch.</desc>
    <defs></defs>
    <g id="Page-1" stroke="none" stroke-width="1" fill="none" fill-rule="evenodd">
        <g id="desktop-landing-page-copy" transform="translate(-414.000000, -689.000000)" fill="#F8DDC6" fill-rule="nonzero">
            <g id="2.-Benefits-Section" transform="translate(32.000000, 506.000000)">
                <g id="Benefits-One" transform="translate(0.000000, 181.000000)">
                    <g id="Screen-Shot-2018-09-08-at-3.13.47-AM" transform="translate(382.000000, 2.000000)">
                        <g id="noun_Scale_1809230">
                            <path d="M156.906828,134.688934 L151.025418,132.324293 C150.09586,131.948816 149.103479,131.755945 148.101864,131.756098 C147.668106,131.756494 147.235109,131.792647 146.807214,131.864193 L138.74373,133.215586 C136.613258,133.573188 134.722581,134.79677 133.515132,136.59936 C132.307682,138.40195 131.889689,140.624957 132.359187,142.747006 L137.245742,164.876515 C137.491064,166.004467 137.615962,167.155572 137.618312,168.310233 L137.618312,178.885785 C137.618312,183.25938 141.140748,186.804878 145.485893,186.804878 C149.831038,186.804878 153.353475,183.25938 153.353475,178.885785 L153.353475,169.160744 C153.351263,167.259373 153.692343,165.373424 154.360092,163.59481 L161.351618,144.823788 C162.828513,140.791774 160.86183,136.307413 156.906828,134.688934 Z" id="Shape"></path>
                            <path d="M65.3571285,133.215924 L57.2936509,131.864539 C55.873741,131.625244 54.4157932,131.783732 53.0793843,132.322656 L47.1940448,134.689262 C43.2390465,136.307731 41.2723655,140.792064 42.7492583,144.824053 L49.7447126,163.600499 C50.4098134,165.377794 50.7495523,167.26166 50.7474744,169.160855 L50.7474744,178.885835 C50.7474744,183.259402 54.2699077,186.804878 58.6150494,186.804878 C62.9601911,186.804878 66.4826244,183.259402 66.4826244,178.885835 L66.4826244,168.31035 C66.4844205,167.158939 66.6093028,166.011066 66.8551148,164.886551 L71.7416656,142.747284 C72.2111993,140.625245 71.7932215,138.402233 70.5857668,136.599646 C69.378312,134.797059 67.4876147,133.573491 65.3571285,133.215924 Z" id="Shape"></path>
                            <path d="M79.3079205,65.122053 L79.3079205,67.4573171 C79.3079205,69.6585984 77.5438,71.4430894 75.3676471,71.4430894 C73.1914941,71.4430894 71.4273736,69.6585984 71.4273736,67.4573171 L71.4273736,55.5 C71.4272907,53.8879621 72.3872692,52.4346302 73.859616,51.8177766 C75.3319627,51.2009229 77.0266787,51.5420454 78.1534204,52.6820589 L104.581189,79.4146341 L169.934211,79.4146341 L169.934211,31.5853659 L156.608954,31.5853659 L149.817105,45.3255189 C148.843712,47.2945649 146.476615,48.0925893 144.530046,47.1079562 C142.583477,46.1233231 141.794563,43.728893 142.767956,41.759847 L147.796927,31.5853659 L106.889835,31.5853659 L106.889835,39.5569106 C106.889835,41.7581919 105.125714,43.5426829 102.949561,43.5426829 C100.773408,43.5426829 99.0092879,41.7581919 99.0092879,39.5569106 L99.0092879,31.5853659 L58.1021173,31.5853659 L63.1310884,41.759847 C64.1044816,43.7288931 63.3155669,46.1233232 61.3689981,47.1079563 C59.4224293,48.0925894 57.0553323,47.294565 56.0819391,45.3255189 L49.2900897,31.5853659 L35.9649123,31.5853659 L35.9649123,79.4146341 L93.4373078,79.4146341 L79.3079205,65.122053 Z" id="Shape"></path>
                            <path d="M185.771033,16.2439024 L20.1280901,16.2439024 C17.9507927,16.2459582 16.1862543,18.0208282 16.1842105,20.210874 L16.1842105,202.691565 C16.1862543,204.881611 17.9507927,206.656481 20.1280901,206.658537 L185.771033,206.658537 C187.948276,206.65635 189.712738,204.881557 189.714912,202.691565 L189.714912,20.210874 C189.712738,18.0208825 187.948276,16.2460892 185.771033,16.2439024 Z M28.0158493,28.1448171 C28.0156191,27.0926398 28.4310598,26.0834906 29.1707306,25.3394889 C29.9104014,24.5954872 30.9136764,24.177614 31.9597289,24.1778455 L173.939394,24.1778455 C174.985443,24.1776245 175.988712,24.5955011 176.728381,25.3395005 C177.468049,26.0834999 177.883493,27.0926431 177.883274,28.1448171 L177.883274,83.6824187 C177.883493,84.7345927 177.468049,85.7437359 176.728381,86.4877353 C175.988712,87.2317347 174.985443,87.6496113 173.939394,87.6493902 L31.9597289,87.6493902 C30.9136764,87.6496218 29.9104014,87.2317486 29.1707306,86.4877469 C28.4310598,85.7437452 28.0156191,84.7345959 28.0158493,83.6824187 L28.0158493,28.1448171 Z M164.896078,118.22284 L160.952198,122.189811 C159.411611,123.735018 156.917917,123.733234 155.379516,122.185825 C153.841115,120.638416 153.839341,118.130122 155.375553,116.580514 L159.319432,112.613542 C160.86002,111.068336 163.353714,111.07012 164.892115,112.617529 C166.430516,114.164937 166.432289,116.673232 164.896078,118.22284 Z M150.276116,111.45122 L150.276116,115.418191 C150.276116,117.609089 148.510381,119.385163 146.332237,119.385163 C144.154092,119.385163 142.388357,117.609089 142.388357,115.418191 L142.388357,111.45122 C142.388357,109.260322 144.154092,107.484248 146.332237,107.484248 C148.510381,107.484248 150.276116,109.260322 150.276116,111.45122 Z M137.288921,122.189811 C136.549601,122.934009 135.54654,123.352142 134.500598,123.352142 C133.454656,123.352142 132.451595,122.934009 131.712275,122.189811 L127.768396,118.22284 C126.232184,116.673232 126.233958,114.164937 127.772359,112.617529 C129.31076,111.07012 131.804454,111.068336 133.345041,112.613542 L137.288921,116.580514 C138.028826,117.324142 138.444551,118.333083 138.444551,119.385163 C138.444551,120.437242 138.028826,121.446184 137.288921,122.189811 Z M78.1307272,118.22284 L74.1868476,122.189811 C72.6462598,123.735018 70.1525662,123.733234 68.614165,122.185825 C67.0757639,120.638416 67.0739904,118.130122 68.6102019,116.580514 L72.5540814,112.613542 C74.0946692,111.068336 76.5883628,111.07012 78.126764,112.617529 C79.6651652,114.164937 79.6669386,116.673232 78.1307272,118.22284 Z M63.5107656,111.45122 L63.5107656,115.418191 C63.5107656,117.609089 61.7450305,119.385163 59.566886,119.385163 C57.3887414,119.385163 55.6230064,117.609089 55.6230064,115.418191 L55.6230064,111.45122 C55.6230064,109.260322 57.3887414,107.484248 59.566886,107.484248 C61.7450305,107.484248 63.5107656,109.260322 63.5107656,111.45122 Z M50.5235701,122.189811 C49.7842503,122.934009 48.7811896,123.352142 47.7352472,123.352142 C46.6893048,123.352142 45.6862441,122.934009 44.9469243,122.189811 L41.0030448,118.22284 C39.4668333,116.673232 39.4686068,114.164937 41.0070079,112.617529 C42.5454091,111.07012 45.0391027,111.068336 46.5796905,112.613542 L50.5235701,116.580514 C51.2634748,117.324142 51.6791998,118.333083 51.6791998,119.385163 C51.6791998,120.437242 51.2634748,121.446184 50.5235701,122.189811 Z M29.171406,126.156783 C27.6351946,124.607175 27.636968,122.09888 29.1753692,120.551472 C30.7137703,119.004063 33.207464,119.002279 34.7480517,120.547485 L38.6919313,124.514457 C39.6904661,125.515985 40.0813061,126.977615 39.7169816,128.347852 C39.3526571,129.718089 38.2886272,130.788349 36.9263665,131.154807 C35.5641058,131.521264 34.1109838,131.128136 33.1152856,130.123755 L29.171406,126.156783 Z M80.430009,144.403265 L75.5312767,166.574273 C75.4072214,167.139168 75.3439001,167.715841 75.3424043,168.294351 L75.3424043,178.889736 C75.3424043,187.653327 68.2794642,194.757622 59.566886,194.757622 C50.8543078,194.757622 43.7913676,187.653327 43.7913676,178.889736 L43.7913676,169.146457 C43.7918862,168.197282 43.622213,167.255793 43.2904949,166.367197 L36.2735049,147.549074 C33.3147193,139.470083 37.2595837,130.48666 45.1894335,127.24532 L45.1894335,127.243733 L51.0859279,124.872674 C53.7654647,123.792243 56.6889956,123.474654 59.5360843,123.954717 L67.6202881,125.308645 C71.8915792,126.025676 75.6823188,128.476557 78.1045072,132.087156 C80.5266956,135.697755 81.3675185,140.150845 80.430009,144.403265 Z M106.893441,194.757622 C106.893441,196.94852 105.127706,198.724593 102.949561,198.724593 C100.771417,198.724593 99.0056818,196.94852 99.0056818,194.757622 L99.0056818,123.352134 C99.0056818,121.161236 100.771417,119.385163 102.949561,119.385163 C105.127706,119.385163 106.893441,121.161236 106.893441,123.352134 L106.893441,194.757622 Z M106.893441,107.484248 C106.893441,109.675146 105.127706,111.45122 102.949561,111.45122 C100.771417,111.45122 99.0056818,109.675146 99.0056818,107.484248 L99.0056818,99.5503049 C99.0056818,97.359407 100.771417,95.5833333 102.949561,95.5833333 C105.127706,95.5833333 106.893441,97.359407 106.893441,99.5503049 L106.893441,107.484248 Z M169.625933,147.549074 L162.612138,166.361246 C162.278119,167.251379 162.10723,168.195029 162.107755,169.146457 L162.107755,178.889736 C162.107755,187.653327 155.044815,194.757622 146.332237,194.757622 C137.619659,194.757622 130.556719,187.653327 130.556719,178.889736 L130.556719,168.294351 C130.554686,167.712721 130.491349,167.132947 130.367767,166.564752 L125.469114,144.403265 C124.531569,140.150841 125.372377,135.697734 127.794571,132.087126 C130.216766,128.476518 134.007527,126.025644 138.278835,125.308645 L146.36296,123.954717 C149.211502,123.474356 152.136555,123.792649 154.81706,124.874658 L160.70961,127.243733 L160.70961,127.24532 C168.639399,130.486731 172.584363,139.469983 169.625933,147.549074 Z M176.727717,126.156783 L172.783837,130.123755 C171.243249,131.668961 168.749556,131.667177 167.211155,130.119768 C165.672754,128.572359 165.67098,126.064065 167.207191,124.514457 L171.151071,120.547485 C172.691659,119.002279 175.185352,119.004063 176.723754,120.551472 C178.262155,122.09888 178.263928,124.607175 176.727717,126.156783 Z" id="Shape"></path>
                            <path d="M185.288462,0 L19.7115385,0 C8.83049674,0.012953828 0.0128820119,8.87972599 0,19.8214286 L0,202.178571 C0.0128820119,213.120274 8.83049674,221.987046 19.7115385,222 L185.288462,222 C196.169494,221.987024 204.987096,213.120265 205,202.178571 L205,19.8214286 C204.987096,8.87973504 196.169494,0.0129756231 185.288462,0 Z M197.115385,202.178571 C197.108258,208.743844 191.817337,214.064262 185.288462,214.071429 L19.7115385,214.071429 C13.1826544,214.064284 7.89172026,208.743853 7.88461538,202.178571 L7.88461538,19.8214286 C7.89172026,13.2561466 13.1826544,7.93571591 19.7115385,7.92857143 L185.288462,7.92857143 C191.817337,7.93573771 197.108258,13.2561556 197.115385,19.8214286 L197.115385,202.178571 Z" id="Shape"></path>
                        </g>
                    </g>
                </g>
            </g>
        </g>
    </g>
</svg>