<?xml version="1.0" encoding="UTF-8"?>
<svg width="135px" height="230px" viewBox="0 0 135 230" version="1.1" xmlns="http://www.w3.org/2000/svg" xmlns:xlink="http://www.w3.org/1999/xlink">
    <!-- Generator: Sketch 51 (57462) - http://www.bohemiancoding.com/sketch -->
    <title>Screen Shot 2018-09-08 at 3.00.54 AM</title>
    <desc>Created with Sketch.</desc>
    <defs></defs>
    <g id="Page-1" stroke="none" stroke-width="1" fill="none" fill-rule="evenodd" stroke-linejoin="round">
        <g id="desktop-landing-page-copy" transform="translate(-772.000000, -686.000000)" stroke="#F8DDC6" stroke-width="7">
            <g id="2.-Benefits-Section" transform="translate(32.000000, 506.000000)">
                <g id="Benefits-One" transform="translate(0.000000, 181.000000)">
                    <g id="Screen-Shot-2018-09-08-at-3.00.54-AM" transform="translate(744.000000, 3.000000)">
                        <g id="noun_protein_720181">
                            <g id="Group">
                                <path d="M99.7857143,26.8548387 C99.7857143,26.8548387 99.7857143,35.8064516 90.7142857,35.8064516 L36.2857143,35.8064516 C36.2857143,35.8064516 27.2142857,35.8064516 27.2142857,26.8548387 L27.2142857,8.9516129 C27.2142857,8.9516129 27.2142857,0 36.2857143,0 L90.7142857,0 C90.7142857,0 99.7857143,0 99.7857143,8.9516129 L99.7857143,26.8548387 Z" id="Shape" stroke-linecap="round"></path>
                                <path d="M88.9,37.5967742 L88.9,41.1774194 C88.9,41.1774194 88.9,50.1290323 97.9714286,50.1290323 L99.7857143,50.1290323 C99.7857143,50.1290323 127,50.1290323 127,76.983871 L127,213.048387 C127,213.048387 127,222 117.928571,222 L9.07142857,222 C0,222 0,213.048387 0,213.048387 L0,76.983871 C0,50.1290323 27.2142857,50.1290323 27.2142857,50.1290323 L29.0285714,50.1290323 C38.1,50.1290323 38.1,41.1774194 38.1,41.1774194 L38.1,37.5967742" id="Shape" stroke-linecap="round"></path>
                                <path d="M1.81428571,93.0967742 L125.185714,93.0967742" id="Shape"></path>
                                <path d="M1.81428571,200.516129 L125.185714,200.516129" id="Shape"></path>
                                <g transform="translate(36.285714, 118.161290)" id="Shape" stroke-linecap="round">
                                    <path d="M33.0594611,37.8442499 C33.0594611,37.8442499 25.759969,37.126983 20.6503245,26.7266137 C19.9203752,25.1127633 19.0079387,22.4230126 18.0955022,19.9125786 L15.7231673,10.946743 C14.4457561,13.0985435 12.0734212,14.5330772 9.33611163,14.5330772 L7.5112386,14.5330772 C3.49651792,14.5330772 0.211746451,11.3053764 0.211746451,7.3604087 C0.211746451,3.41544102 3.49651792,0.187740183 7.5112386,0.187740183 L9.33611163,0.187740183 L25.759969,0.187740183 C25.759969,1.44295717 26.3074309,4.67065801 27.4023547,6.82245856 C28.1323039,8.25699226 28.8622531,8.7949424 29.409715,9.15357583 C34.1543849,12.7399101 39.9939787,15.0710274 44.0086993,18.1194115 C50.2132677,22.781646 53.8630137,29.057731 54.9579376,32.4647485 C56.2353487,36.2303995 57.6952471,39.8167337 56.7828106,43.2237513 C55.1404249,48.6032527 47.8409327,51.8309535 44.0086993,53.982754 C40.176466,56.1345546 31.78205,59.003622 25.759969,59.3622554 C17.365553,59.9002056 9.33611163,52.1895869 0.211746451,61.1554226"></path>
                                    <path d="M0.211746451,36.2303995 C4.40895444,36.2303995 8.24118781,38.0235666 11.343472,41.0719507 L11.1609847,41.0719507 C16.8180911,37.3062998 22.1102229,35.1544992 26.3074309,35.1544992"></path>
                                </g>
                            </g>
                        </g>
                    </g>
                </g>
            </g>
        </g>
    </g>
</svg>